HIERARCHY
ROOT Hips
{
    OFFSET 0.000000 0.000000 0.000000
    CHANNELS 6 Xposition Yposition Zposition Zrotation Xrotation Yrotation
    JOINT Chest
    {
        OFFSET -0.000000 0.071158 0.000000
        CHANNELS 3 Zrotation Xrotation Yrotation
        JOINT Chest2
        {
            OFFSET -0.000000 0.199177 0.000000
            CHANNELS 3 Zrotation Xrotation Yrotation
            JOINT Neck
            {
                OFFSET -0.000000 0.216533 0.000000
                CHANNELS 3 Zrotation Xrotation Yrotation
                JOINT Head
                {
                    OFFSET -0.000000 0.094154 0.017356
                    CHANNELS 3 Zrotation Xrotation Yrotation
                    End Site
                    {
                        OFFSET -0.000000 0.173555 0.000000
                    }
                }
            }
            JOINT LeftCollar
            {
                OFFSET 0.034315 0.182350 -0.001015
                CHANNELS 3 Zrotation Xrotation Yrotation
                JOINT LeftShoulder
                {
                    OFFSET 0.103253 0.000000 0.000000
                    CHANNELS 3 Zrotation Xrotation Yrotation
                    JOINT LeftElbow
                    {
                        OFFSET 0.264272 0.000000 0.000000
                        CHANNELS 3 Zrotation Xrotation Yrotation
                        JOINT LeftWrist
                        {
                            OFFSET 0.228814 0.000000 0.000000
                            CHANNELS 3 Zrotation Xrotation Yrotation
                            End Site
                            {
                                OFFSET 0.000000 -0.130166 0.000000
                            }
                        }
                    }
                }
            }
            JOINT RightCollar
            {
                OFFSET -0.035078 0.182350 -0.001015
                CHANNELS 3 Zrotation Xrotation Yrotation
                JOINT RightShoulder
                {
                    OFFSET -0.103253 0.000000 0.000000
                    CHANNELS 3 Zrotation Xrotation Yrotation
                    JOINT RightElbow
                    {
                        OFFSET -0.264272 0.000000 0.000000
                        CHANNELS 3 Zrotation Xrotation Yrotation
                        JOINT RightWrist
                        {
                            OFFSET -0.228814 0.000000 0.000000
                            CHANNELS 3 Zrotation Xrotation Yrotation
                            End Site
                            {
                                OFFSET -0.000000 -0.130166 0.000000
                            }
                        }
                    }
                }
            }
        }
    }
    JOINT LeftHip
    {
        OFFSET 0.086778 0.000000 0.000000
        CHANNELS 3 Zrotation Xrotation Yrotation
        JOINT LeftKnee
        {
            OFFSET -0.000000 -0.400662 0.000000
            CHANNELS 3 Zrotation Xrotation Yrotation
            JOINT LeftAnkle
            {
                OFFSET -0.000000 -0.330634 0.000000
                CHANNELS 3 Zrotation Xrotation Yrotation
                JOINT LeftToe
                {
                    OFFSET -0.000000 -0.056405 0.130166
                    CHANNELS 3 Zrotation Xrotation Yrotation
                    End Site
                    {
                        OFFSET -0.000000 0.000000 0.034711
                    }
                }
            }
        }
    }
    JOINT RightHip
    {
        OFFSET -0.086778 0.000000 0.000000
        CHANNELS 3 Zrotation Xrotation Yrotation
        JOINT RightKnee
        {
            OFFSET -0.000000 -0.400662 0.000000
            CHANNELS 3 Zrotation Xrotation Yrotation
            JOINT RightAnkle
            {
                OFFSET -0.000000 -0.330634 0.000000
                CHANNELS 3 Zrotation Xrotation Yrotation
                JOINT RightToe
                {
                    OFFSET -0.000000 -0.056405 0.130166
                    CHANNELS 3 Zrotation Xrotation Yrotation
                    End Site
                    {
                        OFFSET -0.000000 0.000000 0.034711
                    }
                }
            }
        }
    }
}
MOTION
Frames:    9
Frame Time:    0.016667
0.010649    0.808314    0.277905    1.201071    0.100170    172.872177    -1.212897    -4.981718    -2.342858    1.229915    2.745802    -0.792601    -2.003135    6.932118    1.048775    -0.003460    2.266465    0.694794    1.448542    0.422660    -7.291881    -48.136703    19.649878    -14.980160    -6.934980    -44.214905    -29.435045    86.579681    -25.076698    44.746834    -7.690623    2.837901    4.753394    57.232628    15.053491    2.238787    -8.246429    -9.890169    6.898902    -123.469460    8.242225    -6.917160    2.495335    2.858999    0.554838    -5.152942    11.592699    6.581623    1.023489    -15.513494    9.016646    0.000000    0.000000    0.000000    0.270481    -7.868196    0.307747    -0.386705    10.997632    1.104019    0.461387    -3.522282    -0.288178    0.000000    0.000000    0.000000    
0.010755    0.808332    0.277838    1.194466    0.048861    172.980194    -1.202166    -5.009171    -2.316698    1.259250    2.782386    -0.785001    -1.709723    6.770335    1.006193    -0.383308    2.432093    0.767245    1.571634    0.352759    -7.039193    -48.237904    18.713886    -13.981833    -6.237220    -43.838375    -27.171362    87.281738    -24.297009    44.331528    -7.608127    3.069642    4.540730    57.012623    14.980435    2.601181    -8.138153    -9.820040    6.887273    -123.474503    8.228756    -6.857892    2.501546    2.807455    0.678560    -5.093293    11.579682    6.467699    1.011960    -15.494518    8.893754    0.000000    0.000000    0.000000    0.281499    -7.896370    0.335765    -0.402101    10.990332    1.031301    0.458257    -3.531014    -0.351772    0.000000    0.000000    0.000000    
0.010776    0.808255    0.277869    1.180071    -0.001341    173.158264    -1.171893    -5.044558    -2.342755    1.268859    2.817405    -0.794560    -1.708340    6.700726    0.992563    -0.393121    2.475362    0.756041    1.591830    0.410918    -6.821533    -48.201141    17.822012    -13.007881    -5.640098    -43.704441    -25.202906    88.044060    -22.953814    44.212627    -7.684080    2.947794    4.706306    57.200909    14.924500    2.351853    -8.167542    -9.902989    6.926011    -123.510422    8.342360    -6.899271    2.524491    2.733034    0.451304    -5.168540    11.571995    6.529124    1.034406    -15.506132    8.927479    0.000000    0.000000    0.000000    0.261291    -7.926335    0.297287    -0.400902    10.988917    0.954821    0.457750    -3.601557    -0.398647    0.000000    0.000000    0.000000    
0.010827    0.808208    0.277847    1.153478    -0.032023    173.313263    -1.085151    -5.025973    -2.251527    1.187568    2.799487    -0.763460    -1.788218    6.781611    0.937615    -0.174932    2.284327    0.649514    1.689859    0.617652    -6.633395    -48.111866    16.547571    -11.791216    -4.663623    -42.887440    -22.759453    88.519119    -21.489237    43.290680    -7.659726    3.047637    4.530587    57.209881    14.889679    2.528023    -8.158930    -9.934030    6.763637    -123.198471    8.190512    -7.012604    2.540353    2.732331    0.464892    -5.203590    11.461246    6.540194    0.952874    -15.443607    8.707754    0.000000    0.000000    0.000000    0.233089    -7.916508    0.514811    -0.356715    10.945510    0.618465    0.483737    -3.666378    -0.423913    0.000000    0.000000    0.000000    
0.010872    0.808215    0.277702    1.129097    -0.022395    173.408081    -1.096820    -4.945513    -2.150249    1.233877    2.745071    -0.730205    -1.743173    6.707650    0.859969    -0.164188    2.369642    0.577663    1.739304    0.629780    -6.478469    -48.156685    15.537372    -10.869598    -3.585149    -42.013756    -20.273106    88.762611    -21.442419    42.254044    -7.667584    3.093245    4.483123    57.221420    14.843045    2.464539    -8.155391    -9.972339    6.818073    -122.875908    8.304407    -7.038678    2.544266    2.727336    0.717113    -5.191041    11.507311    6.247159    1.017070    -15.457906    8.745453    0.000000    0.000000    0.000000    0.216055    -7.911468    0.355796    -0.408457    11.002840    0.757563    0.495951    -3.750431    -0.484643    0.000000    0.000000    0.000000    
0.010879    0.808244    0.277586    1.113422    -0.014540    173.522308    -1.073471    -4.916798    -2.081313    1.255859    2.793469    -0.708659    -1.833510    6.657507    0.806006    0.029451    2.380835    0.476554    1.795705    0.725746    -6.224761    -48.138256    14.632756    -10.080334    -2.694403    -41.465839    -18.143942    88.845520    -20.643322    41.577236    -7.685243    3.053064    4.570600    57.245289    14.740210    2.276342    -8.083693    -10.082250    6.997095    -122.690933    8.197419    -7.186578    2.546509    2.726765    0.774412    -5.188569    11.510628    6.140047    1.060135    -15.436319    8.682079    0.000000    0.000000    0.000000    0.187286    -7.878701    0.378484    -0.387713    10.993821    0.644927    0.506985    -3.780235    -0.498180    0.000000    0.000000    0.000000    
0.010921    0.808230    0.277475    1.113740    -0.003227    173.656982    -1.022672    -4.931310    -2.045933    1.249452    2.900397    -0.698654    -2.035716    6.728728    0.759901    0.336219    2.203185    0.343276    1.822897    0.918230    -5.910111    -48.119125    13.302949    -9.381334    -2.181990    -41.022011    -16.359264    89.059662    -20.350368    41.089474    -7.675872    3.078256    4.533096    57.220947    14.681497    2.369063    -8.164724    -10.040269    6.894276    -123.074188    8.382874    -7.061708    2.561116    2.726965    0.811685    -5.175361    11.514259    6.147591    1.011637    -15.420424    8.457400    0.000000    0.000000    0.000000    0.178447    -7.841327    0.349825    -0.386182    10.996381    0.564694    0.519269    -3.832738    -0.524300    0.000000    0.000000    0.000000    
0.010889    0.808230    0.277493    1.112138    -0.007878    173.799515    -0.993652    -4.877191    -1.981673    1.284737    2.909683    -0.678873    -2.027121    6.680031    0.697273    0.302539    2.176311    0.286236    1.948063    0.842341    -5.790168    -48.397110    12.200151    -8.229906    -1.895005    -40.784847    -15.144234    89.453270    -19.345144    40.882133    -7.692749    3.086954    4.484598    57.210274    14.530746    2.396272    -8.194103    -9.874774    6.809920    -122.731186    8.143880    -6.998040    2.565706    2.698405    0.787217    -5.167058    11.529497    6.068861    0.970208    -15.410174    8.448257    0.000000    0.000000    0.000000    0.164775    -7.842786    0.325038    -0.384751    11.019159    0.462944    0.512171    -3.862142    -0.532709    0.000000    0.000000    0.000000    
0.010865    0.808255    0.277398    1.114126    -0.008921    173.921936    -0.877341    -4.903092    -1.918555    1.178687    3.015787    -0.657765    -2.032300    6.706216    0.662412    0.355221    2.025056    0.241554    2.030022    1.031974    -5.627540    -48.361012    11.027699    -7.369094    -1.566663    -40.260189    -13.869308    89.727486    -18.137442    40.361950    -7.626804    3.134317    4.544822    57.176144    14.463498    2.405540    -8.266479    -9.844519    6.733670    -122.978310    8.172056    -6.941433    2.576254    2.707598    0.576822    -5.198734    11.462411    6.234144    0.978478    -15.382069    8.371527    0.000000    0.000000    0.000000    0.162509    -7.826643    0.303326    -0.394967    11.021992    0.344287    0.488893    -3.850230    -0.511011    0.000000    0.000000    0.000000    
